<?xml version="1.0" encoding="UTF-8"?>
<svg id="Layer_1" data-name="Layer 1" xmlns="http://www.w3.org/2000/svg" viewBox="0 0 320 131.74">
  <defs>
    <style>
      .cls-1 {
        fill: #95cedd;
      }

      .cls-1, .cls-2 {
        stroke-width: 0px;
      }

      .cls-2 {
        fill: #8e949d;
      }
    </style>
  </defs>
  <g>
    <path class="cls-2" d="M64.52,83.95l-19.97-48.22c-.04-.07-.07-.14-.09-.2-.02-.06-.05-.12-.08-.2l-.28-.34s-.11-.05-.23-.17l-.12-.11c-.26-.15-.55-.25-.85-.28h-.17s-.11-.06-.23-.06h-.05c-.08,0-.13.02-.17.06h-.17c-.31.04-.57.13-.8.28l-.06.05s-.08.02-.11.06c-.04.11-.09.17-.17.17l-.28.34c-.04.08-.07.14-.09.2-.02.05-.05.12-.09.2l-19.96,48.22c-.27.57-.27,1.13,0,1.7.15.42.41.75.79.99.38.25.77.37,1.19.37.98,0,1.66-.45,2.04-1.36l17.92-43.33,7.07,17.04,1.78,4.28,9.14,22.01c.34.91,1.02,1.36,2.04,1.36.9,0,1.57-.45,1.98-1.36.23-.57.23-1.13,0-1.7Z"/>
    <path class="cls-2" d="M160.75,34.74c-.44-.44-.95-.65-1.56-.65h-.96l-.62.62c-.41.41-.62.95-.62,1.59v21.89h-30.01v-21.89c0-.6-.21-1.12-.62-1.56-.41-.44-.94-.65-1.59-.65-.6,0-1.12.22-1.56.65s-.65.96-.65,1.56v48.21c0,.61.22,1.13.65,1.56.44.44.96.65,1.56.65.64,0,1.17-.21,1.59-.62.42-.42.62-.95.62-1.59v-21.89h30.01v21.89c0,.64.21,1.17.62,1.59.41.41.95.62,1.59.62.57,0,1.08-.22,1.53-.65.46-.43.68-.95.68-1.56v-48.21c0-.6-.22-1.12-.65-1.56Z"/>
    <path class="cls-2" d="M170.08,87.07l-.62-.68c-.45-.42-.68-.93-.68-1.53v-48.95l.68-.68c.42-.45.93-.68,1.53-.68s1.12.23,1.56.68c.43.45.65.96.65,1.53v48.1c0,.61-.22,1.13-.65,1.56-.44.44-.96.65-1.56.65h-.91Z"/>
    <path class="cls-2" d="M212.62,82.76l.68.62c.42.49.62,1.02.62,1.59,0,.61-.21,1.13-.62,1.56-.42.43-.93.65-1.53.65h-29.21c-.61,0-1.12-.22-1.53-.65-.42-.43-.62-.95-.62-1.56v-48.33c0-.6.21-1.12.62-1.56.42-.43.93-.65,1.53-.65l29.21.06c.6,0,1.11.21,1.53.62l.62.68v.91c0,.64-.21,1.17-.62,1.59-.42.42-.93.62-1.53.62l-27-.06v43.9h27.85ZM205.87,63.02h-17.24v-4.42h16.34c.6,0,1.11.22,1.53.65.42.44.62.96.62,1.56s-.21,1.12-.62,1.53l-.62.68Z"/>
    <path class="cls-2" d="M255.27,35.74c.15-.42.41-.77.77-1.05.36-.28.78-.43,1.28-.43.42,0,.8.11,1.16.34.36.23.63.53.82.91l.4.91c-.04.08-.06.15-.06.23-.04.08-.08.15-.11.23-.04.08-.09.19-.17.34l-16.9,48.27v-.17l-.11.34c-.04.11-.11.23-.23.34v.06c-.08.08-.12.13-.14.17-.02.04-.07.08-.14.11l-.06.11c-.08.08-.15.11-.23.11-.08.08-.14.12-.2.14-.06.02-.12.05-.2.09l-.17.06s-.09.06-.17.06h-.11s-.15.06-.34.06-.3-.02-.34-.06h-.11c-.08,0-.12,0-.14-.03-.02-.02-.05-.03-.09-.03-.23-.11-.36-.17-.4-.17l-.11-.11c-.08,0-.15-.04-.23-.11l-.06-.11c-.08-.08-.17-.18-.28-.31-.11-.13-.19-.26-.23-.37l-17.02-48.44c-.19-.53-.17-1.1.06-1.7.19-.38.46-.68.82-.91.36-.23.75-.34,1.16-.34.49,0,.92.14,1.28.43.36.28.63.63.82,1.05l14.86,42.37,14.92-42.37Z"/>
    <path class="cls-2" d="M298.72,82.76l.68.62c.42.49.62,1.02.62,1.59,0,.61-.21,1.13-.62,1.56-.42.43-.93.65-1.53.65h-29.21c-.61,0-1.12-.22-1.53-.65-.42-.43-.62-.95-.62-1.56v-48.33c0-.6.21-1.12.62-1.56.42-.43.93-.65,1.53-.65l29.21.06c.6,0,1.11.21,1.53.62l.62.68v.91c0,.64-.21,1.17-.62,1.59-.42.42-.93.62-1.53.62l-27-.06v43.9h27.85ZM291.97,63.02h-17.24v-4.42h16.34c.6,0,1.11.22,1.53.65.42.44.62.96.62,1.56s-.21,1.12-.62,1.53l-.62.68Z"/>
    <g>
      <path class="cls-2" d="M64.76,59.64c-.02-.25-.05-.49-.08-.74.72-18.53,8.71-32.44,24.9-40.75,16.16-8.29,32.14-6.84,47.26,3.28,2.61,1.74,3.4,4.16,2.16,6.08-1.33,2.06-3.75,2.1-6.63.1-19.5-13.54-44.58-6.76-55.21,12.32-3.57,2.72-9.5,8.68-12.4,19.71Z"/>
      <path class="cls-2" d="M87.13,88.84c.24,3.05.99,6.53,2.53,10.41-12.29-5.96-20.12-16.18-23.56-30.01-.37-6.72,1.73-14.17,7.95-22.11-.45,1.4-.82,2.85-1.13,4.34-2.99,14.67,3.24,28.92,14.2,37.37Z"/>
      <path class="cls-2" d="M140.47,92.91c-13.23,11.3-28.35,14.32-44.67,8.84-1.18-.39-2.32-.82-3.43-1.29-1.8-3.62-2.42-7.21-2.6-9.77,5.71,3.68,12.47,5.87,19.76,5.94,9.99.09,18.57-3.06,26.09-9.47,2.18-1.86,4.16-1.85,5.73-.03,1.57,1.82,1.32,3.89-.89,5.78Z"/>
    </g>
  </g>
  <path class="cls-2" d="M52.22,60c-.27-.43-.6-.64-1-.64h-13.26c-.4,0-.74.22-1.03.64-.29.43-.43.95-.43,1.54s.14,1.1.43,1.51c.29.41.63.61,1.03.61h13.26c.07,0,.14,0,.21-.02.31-.05.57-.25.79-.59.27-.41.41-.91.41-1.51s-.14-1.11-.41-1.54Z"/>
  <polygon class="cls-1" points="169.74 23.22 171.62 17.41 173.74 23.45 180.29 23.78 174.89 27.72 176.49 33.32 171.74 29.65 166.45 33.11 168.19 27.22 163.08 23.13 169.74 23.22"/>
  <circle class="cls-2" cx="92.89" cy="47.18" r="7.62"/>
  <path class="cls-1" d="M117.07,63.65s-10.76-5.58-24.19,9.65c0,0-5.79,5.98-4.91,17.4.25,3.28,1.06,7.01,2.71,11.18.61,1.54,1.34,3.14,2.19,4.8-.42-.24-26.27-15.01-27.48-37.01-.4-7.22,1.86-15.22,8.54-23.73,2.69-3.44,6.11-6.96,10.36-10.55-.21.31-11.23,16.6,3.03,24.39,0,0,3.75,1.57,8.71,0,0,0,14.39-5.76,21.04,3.89Z"/>
  <g>
    <path class="cls-1" d="M197.37,118.61c-.88,0-1.71-.16-2.49-.47s-1.45-.74-2.02-1.29c-.57-.55-1.07-1.13-1.5-1.75-.43-.62-.81-1.28-1.13-1.99l.29-.13c.67,1.47,1.64,2.68,2.93,3.66s2.7,1.35,4.25,1.13c.99-.13,1.75-.38,2.28-.74.53-.37.96-.87,1.31-1.52.54-.95.56-1.91.06-2.9s-1.28-1.86-2.36-2.64l-4.17-2.94c-2.7-1.9-3.62-4.37-2.78-7.41.39-1.42,1.13-2.52,2.22-3.3s2.25-1.16,3.48-1.16c2.52,0,4.79,1.17,6.79,3.53l-2.59,2.59c0-.84-.11-1.67-.32-2.47s-.58-1.53-1.1-2.15c-.52-.62-1.12-.98-1.81-1.07-1.34-.17-2.38.21-3.14,1.15-.76.94-1.13,2.03-1.13,3.28.02,1.66.99,3.16,2.91,4.5l4.14,2.81c1.06.73,1.89,1.56,2.49,2.47.6.92.9,1.91.89,2.98-.01,1.07-.39,2.08-1.15,3.03-.47.65-1.01,1.18-1.62,1.58-.6.41-1.29.72-2.07.92s-1.66.31-2.65.31Z"/>
    <path class="cls-1" d="M216.1,101.66c1.42,0,2.74.37,3.95,1.12s2.16,1.76,2.86,3.04c.7,1.28,1.05,2.68,1.05,4.19,0,.8-.1,1.58-.29,2.33-.22.76-.52,1.46-.91,2.1-.58,1.1-1.5,2.04-2.75,2.81s-2.51,1.13-3.78,1.07c-1.36-.09-2.49-.87-3.4-2.36v7.18c0,.67.27,1.2.81,1.58h-5.14c.54-.39.81-.92.81-1.58v-19.47c0-.67-.27-1.2-.81-1.59h1.52c1.04,0,1.97.31,2.81.94,1.06-.91,2.15-1.36,3.27-1.36ZM216.23,118.03c1.31,0,2.39-.77,3.22-2.31.83-1.54,1.25-3.45,1.25-5.71s-.45-4.11-1.34-5.68-1.98-2.35-3.25-2.35c-.45,0-.96.18-1.52.53-.56.36-1,.8-1.33,1.34-.28.47-.42,1.01-.42,1.62v6.02c0,1.01.08,1.91.23,2.7.15.79.34,1.42.58,1.89.24.47.51.86.82,1.16.31.3.62.51.91.62s.58.16.86.16Z"/>
    <path class="cls-1" d="M242.47,114.28l.29.13c-1.7,2.63-3.91,3.95-6.63,3.95-2.35,0-4.35-.81-6-2.44-1.65-1.63-2.47-3.6-2.47-5.9s.83-4.28,2.47-5.9c1.65-1.63,3.65-2.44,6-2.44.8,0,1.56.15,2.3.45s1.36.73,1.89,1.29.88,1.25,1.07,2.05.15,1.72-.11,2.73c-.17.58-.48,1.13-.92,1.63s-.98.93-1.6,1.26c-.62.33-1.26.63-1.89.89-.64.26-1.32.47-2.04.65-.72.17-1.32.3-1.8.39s-.94.15-1.39.19c.41,1.32,1.01,2.39,1.81,3.22s1.69,1.27,2.68,1.31c2.61.22,4.72-.94,6.34-3.46ZM231.18,110.01c0,1.01.13,2,.39,2.94.43-.09.87-.19,1.33-.31.45-.12,1.01-.32,1.67-.61.66-.29,1.25-.63,1.78-1.02.53-.39,1.02-.9,1.47-1.54s.76-1.34.94-2.12c.15-.52.18-1.08.1-1.7-.09-.62-.23-1.19-.44-1.73-.21-.54-.53-.99-.99-1.34-.45-.36-.98-.53-1.58-.53-.84,0-1.58.28-2.22.84-.64.56-1.12,1.27-1.46,2.12-.33.85-.58,1.7-.74,2.56-.16.85-.24,1.67-.24,2.44Z"/>
    <path class="cls-1" d="M260.78,114.28l.29.13c-1.7,2.63-3.91,3.95-6.63,3.95-2.35,0-4.35-.81-6-2.44-1.65-1.63-2.47-3.6-2.47-5.9s.83-4.28,2.47-5.9c1.65-1.63,3.65-2.44,6-2.44.8,0,1.56.15,2.3.45s1.36.73,1.89,1.29.88,1.25,1.07,2.05.15,1.72-.11,2.73c-.17.58-.48,1.13-.92,1.63s-.98.93-1.6,1.26c-.62.33-1.26.63-1.89.89-.64.26-1.32.47-2.04.65-.72.17-1.32.3-1.8.39s-.94.15-1.39.19c.41,1.32,1.01,2.39,1.81,3.22s1.69,1.27,2.68,1.31c2.61.22,4.72-.94,6.34-3.46ZM249.49,110.01c0,1.01.13,2,.39,2.94.43-.09.87-.19,1.33-.31.45-.12,1.01-.32,1.67-.61.66-.29,1.25-.63,1.78-1.02.53-.39,1.02-.9,1.47-1.54s.76-1.34.94-2.12c.15-.52.18-1.08.1-1.7-.09-.62-.23-1.19-.44-1.73-.21-.54-.53-.99-.99-1.34-.45-.36-.98-.53-1.58-.53-.84,0-1.58.28-2.22.84-.64.56-1.12,1.27-1.46,2.12-.33.85-.58,1.7-.74,2.56-.16.85-.24,1.67-.24,2.44Z"/>
    <path class="cls-1" d="M279.09,114.28l.29.13c-1.7,2.63-3.91,3.95-6.63,3.95-2.35,0-4.35-.81-6-2.44-1.65-1.63-2.47-3.6-2.47-5.9s.83-4.28,2.47-5.9c1.65-1.63,3.65-2.44,6-2.44,2.09,0,3.94.68,5.53,2.04l-1.58,1.49c-.47-.99-1.06-1.77-1.75-2.35-.69-.57-1.42-.86-2.2-.86-1.38,0-2.55.78-3.51,2.35s-1.44,3.46-1.44,5.68.47,3.98,1.42,5.42c.95,1.43,2.12,2.21,3.53,2.31,2.61.22,4.72-.94,6.34-3.46Z"/>
    <path class="cls-1" d="M298.53,117.93h-5.14c.54-.41.81-.94.81-1.58v-5.69c0-2.03-.1-3.66-.29-4.88s-.53-2.17-1-2.81c-.47-.65-1.12-.97-1.94-.97-.35,0-.71.08-1.1.24-.39.16-.79.43-1.2.81-.41.38-.77.94-1.08,1.7s-.51,1.64-.6,2.65v8.96c0,.65.27,1.18.81,1.58h-5.14c.54-.41.81-.94.81-1.58v-19.47c0-.67-.27-1.2-.81-1.58h4.33v8.7c1.21-1.53,2.53-2.3,3.98-2.3,2.2,0,3.88.79,5.03,2.38,1.15,1.58,1.73,3.67,1.73,6.26v6.02c0,.65.27,1.18.81,1.58Z"/>
  </g>
</svg>