<svg xmlns="http://www.w3.org/2000/svg" width="128" height="160" viewBox="0 0 128 160" fill="none"><path d="M0.401198 120.638C-0.498517 116.488 4.81764 114.397 8.98334 113.494C11.285 112.996 13.802 112.431 16.4064 111.828L18.9173 111.242C25.4231 109.707 30.6651 110.036 35.8304 108.554C38.7157 103.511 50.6191 86.5699 54.2586 82.0409C46.0165 82.7492 28.323 92.0196 20.1382 93.2312C18.1882 93.5109 16.241 93.8096 14.2906 94.0866C10.0707 94.6859 6.16698 91.7628 5.57146 87.5577C4.97595 83.3526 7.91413 79.458 12.1341 78.8587C13.8825 78.6104 15.6299 78.3524 17.3763 78.0907C24.5507 77.0273 34.2692 75.5867 40.0961 75.1499C44.7449 74.8014 49.3828 74.3214 54.032 73.977C56.0555 73.827 58.1756 73.6924 60.2225 73.6299C62.8736 70.909 73.6751 59.2229 76.2918 56.469C67.421 56.7569 37.5537 63.4286 30.4357 66.8439C26.5052 67.896 22.0562 69.2513 19.6165 65.7719C17.1769 62.2925 16.4948 60.0424 19.9891 57.6061C24.8008 54.2514 30.8446 52.6817 36.6397 52.0316C38.5523 51.817 40.9195 51.6008 43.5475 51.3934C48.8115 50.9779 55.2915 50.5839 61.6105 50.3036C67.9102 50.0241 74.1603 49.8525 78.9316 49.894C79.7926 49.9015 80.6309 49.9161 81.4315 49.9398C84.5329 45.8398 91.5844 34.0804 94.5027 29.8654C82.074 29.2687 61.3778 35.9332 50.3581 41.6824C46.5803 43.6533 41.9188 42.201 39.9464 38.4384C37.974 34.6758 39.4375 30.0278 43.2154 28.0569C53.1697 22.8635 64.603 21.717 75.0666 21.6481C83.5838 21.5919 92.0667 22.3002 100.575 22.5019C101.154 21.5002 101.699 20.4885 102.204 19.4527L109.355 4.73139C111.214 0.906793 115.83 -0.695754 119.665 1.152C123.5 2.99978 125.101 7.59812 123.242 11.4227C119.966 18.1629 117.001 25.1525 113.102 31.5698C114.862 36.7479 117.835 45.8179 120.606 54.9797C122.567 61.4595 124.476 68.1472 125.815 73.6845C126.483 76.4423 127.039 79.0369 127.383 81.2373C127.664 83.033 128.029 85.7874 127.534 88.1556C126.665 92.3151 122.578 94.9894 118.406 94.1288C112.64 92.9396 113.822 84.1174 113.124 79.6616C111.157 67.0903 112.838 47.8283 109.089 36.1476C106.721 39.5333 98.7184 50.7056 96.2405 54.0145C100.374 61.5718 105.721 96.8974 107.459 106.774C108.149 110.698 107.859 114.43 107.571 117.325C107.15 121.553 103.371 124.645 99.1302 124.231C94.8892 123.818 91.7922 120.056 92.2127 115.829C92.4846 113.095 92.558 111.159 92.2575 109.451C90.0743 97.0425 93.7221 72.394 89.9995 60.1955C89.9995 60.1955 77.7601 75.1813 75.2514 77.7681C76.4159 83.5169 77.8446 91.2746 79.3481 96.9614C80.4355 101.074 81.4553 105.225 82.4575 109.305L82.4579 109.307L83.6685 114.214C84.1432 116.122 84.621 117.757 85.1602 119.602C85.2853 120.03 85.4139 120.47 85.5463 120.927C86.2418 123.325 86.9868 126.001 87.7574 129.484C88.6748 133.63 86.0447 137.738 81.8829 138.658C77.7211 139.578 73.6035 136.962 72.6861 132.815C70.3229 122.135 70.7722 117.945 67.9778 107.376C67.3066 104.837 66.0423 90.2369 65.5141 87.6845C68.3562 82.5501 52.0183 103.729 52.8793 105.136C54.4592 107.717 53.1305 104.904 55.3693 110.751C58.1035 117.892 60.5008 125.159 63.2962 132.277C65.1754 137.063 64.8681 142.664 60.0039 147.132C58.8047 148.233 56.2067 149.602 53.3209 146.48C47.4297 139.576 47.9578 123.169 44.517 113.656C42.5103 118.407 34.5483 130.117 32.6622 135.083C32.8003 140.441 34.399 141.559 37.8156 148.35C39.7248 152.145 39.4013 156.182 36.8491 158.758C34.2637 161.367 28.4827 157.555 27.3201 153.47C26.9706 152.242 26.069 149.859 25.0179 147.242C22.9421 148.357 20.8042 149.477 19.7739 149.91C15.8453 151.561 13.2194 151.584 11.5676 147.671C9.88657 143.689 12.1635 141.324 15.9721 139.551C19.1232 138.084 21.9819 137.003 22.987 134.359C23.9921 131.716 30.1947 120.139 31.2591 117.457C25.3587 118.922 16.8889 123.253 11.8912 124.336C7.72547 125.238 1.30091 124.789 0.401198 120.638Z" fill="#E49CA8"></path></svg>