<svg xmlns="http://www.w3.org/2000/svg" width="90" height="104" viewBox="0 0 90 104" fill="none"><path fill-rule="evenodd" clip-rule="evenodd" d="M69.9811 103.452C63.5431 105.287 48.0463 89.2484 43.0946 84.9989C35.8756 78.8036 35.9196 78.8127 28.5657 72.7388C23.1208 68.2415 16.9406 63.7504 12.4836 58.1892C11.253 56.6537 8.54416 52.509 7.86993 51.4892C4.10286 45.7917 -0.284049 39.1226 0.0144378 31.9535C0.216283 27.1074 5.36524 24.7969 9.37701 23.7851C19.0201 21.3531 28.8527 25.3693 36.2984 31.5535C40.3769 34.9408 43.5364 39.0991 46.9731 43.1202C47.9056 44.2112 48.87 45.274 49.8156 46.3536C50.2408 46.8393 50.6472 47.3422 51.0855 47.8158C51.3697 48.123 51.6485 48.4419 51.9812 48.6946C52.1173 48.7979 52.4025 49.0218 52.4645 48.8623C52.7439 48.1416 52.7346 47.3362 52.807 46.5653C53.0774 43.6799 53.0615 39.5437 53.2264 36.8945C53.3576 34.7886 53.8213 31.519 54.34 29.5031C55.022 26.8534 55.7207 24.202 56.6246 21.6216C57.5292 19.0383 58.643 16.5334 59.7571 14.0355C60.2831 12.856 60.9082 11.7232 61.5406 10.5986C64.2849 5.71811 68.6787 -0.21334 74.9288 0.00590263C82.1886 0.260412 85.9094 8.53821 87.2831 14.6735C87.7529 16.7723 88.1845 18.8847 88.4559 21.0182C91.0376 41.321 85.7685 61.6175 79.6693 80.7477C78.8171 83.4205 74.0219 102.299 69.9811 103.452Z" fill="#9AACE3"></path></svg>