<svg xmlns="http://www.w3.org/2000/svg" width="142" height="134" viewBox="0 0 142 134" fill="none"><path d="M107.101 83.9619C107.1 83.9581 107.252 93.0404 107.053 95.042C106.399 101.649 102.564 107.299 98.2514 107.939C89.501 109.238 82.265 89.3973 90.0173 81.5716C90.69 80.8932 88.1292 81.8582 87.1782 81.8582C85.5306 81.8582 83.9685 81.9343 82.3511 81.5716C76.8788 80.3442 70.5279 78.5645 68.1542 72.9737C66.1781 68.3194 71.2804 61.2215 75.2526 59.2168C77.2984 58.1846 81.4993 56.351 81.4993 56.351C81.4993 56.351 80.5741 55.9027 80.0798 55.7778C77.5371 55.1362 74.7363 54.5009 72.4129 53.198C67.163 50.2543 55.9095 42.8813 55.093 36.2887C53.9498 27.0581 63.5764 22.1146 71.4041 23.1056C76.5805 23.7612 83.8045 25.0527 83.8045 25.0527C83.8045 25.0527 83.157 21.9534 82.7239 19.8302L82.3511 17.9466C81.4962 12.7698 82.7707 1.34859 89.7334 0.176927C98.8933 -1.36374 106.407 7.4707 109.893 14.507C111.386 17.5224 112.164 20.9081 112.164 24.2513V25.9714C112.164 25.9714 112.598 25.2302 112.732 24.825C113.677 21.9643 117.248 18.0715 120.763 18.6529C126.542 19.609 133.38 29.3735 128.866 43.8906C128.683 44.4752 125.952 51.1482 126.077 51.192C130.127 52.6077 144.246 56.6509 141.694 66.9549C140.367 72.3124 133.706 72.585 129.2 71.8274C126.585 71.3874 122.67 69.2774 122.67 69.5348C122.67 72.7055 140.106 86.8327 127.497 94.4688C123.253 97.0385 115.415 92.3994 111.88 90.1695C109.855 88.892 107.829 86.1657 107.101 83.9619Z" fill="#EC965D"></path><path fill-rule="evenodd" clip-rule="evenodd" d="M7.7262 62.9998C7.38546 65.498 6.49227 72.6132 5.82052 76.1297C5.13487 79.7196 4.0275 83.2207 3.34123 86.8104C1.95493 94.063 1.3368 103.416 0.676027 110.258C0.524586 111.827 0.319214 113.391 0.21367 114.963C-0.0171998 118.398 -0.25456 122.013 0.621941 125.4C1.09202 127.217 1.89342 129.264 3.4324 130.461C4.47687 131.273 5.91139 131.772 7.12152 132.109C11.5484 133.34 16.4614 133.248 20.9728 133.285C32.2327 133.378 43.5253 133.503 54.784 133.149C57.9323 133.05 61.0739 132.79 64.2222 132.692C66.6957 132.615 71.181 132.845 73.5177 132.839C75.8109 132.834 78.4344 132.662 80.5328 131.625C81.1257 131.332 82.1728 131.159 82.166 130.499C82.118 125.821 80.4285 122.779 75.6704 116.048C68.1607 105.424 24.3452 62.7069 21.662 60.9273C19.5571 59.5314 11.723 52.1768 9.26348 56.9554C8.86927 57.7212 8.60734 58.5541 8.39501 59.3885C8.09321 60.5751 7.89155 61.7868 7.7262 62.9998Z" fill="#ACD2BF"></path></svg>