<svg xmlns="http://www.w3.org/2000/svg" width="200" height="202" viewBox="0 0 200 202" fill="none"><path fill-rule="evenodd" clip-rule="evenodd" d="M56.055 24.4827C57.1515 26.5363 67.1774 35.3248 70.9889 39.588C82.422 52.3771 89.1446 61.6825 85.9312 68.0872C84.4209 71.0974 76.2638 78.8573 73.3125 80.706C57.636 90.5254 46.3157 77.1752 36.2145 67.074C32.8075 63.667 25.9391 54.3247 20.6929 56.4332C16.0794 58.2873 1.31927 71.4217 0.606809 76.3324C0.258992 78.7296 8.1842 87.3857 9.84858 89.3288C18.6502 99.6045 27.3109 108.357 38.7904 115.228C43.3174 117.938 51.0486 123.872 56.6263 124.231C67.1807 124.911 81.0168 114.701 88.9714 108.331C99.4232 99.9612 110.894 92.2516 118.275 81.2009C126.535 68.8339 133.11 61.7666 127.647 48.0459C126.258 44.5543 118.447 33.6071 116.011 30.6809C106.781 19.5961 94.6388 7.51498 81.7085 1.07173C79.766 0.103833 77.4961 3.04154 76.3633 4.1743C75.3361 5.20151 55.3516 23.1652 56.055 24.4827Z" fill="#E49CA8"></path><path d="M167.735 193.715C165.828 193.758 165.371 201.739 162.539 200.326C162.136 200.125 161.039 199.105 160.777 198.712C160.322 198.031 159.094 194.986 158.021 195.521C155.294 196.883 157.923 201.946 153.171 201.353C152.715 201.296 152.159 201.233 151.739 201.023C148.593 199.453 150.471 194.146 146.889 193.431C143.137 192.682 143.665 198.908 139.614 197.392C137.411 196.567 135.803 194.12 135.095 192C134.866 191.316 134.442 188.995 133.552 188.7C131.313 187.954 129.972 191.316 128.702 192.33C127.483 193.304 125.179 192.701 124.073 191.78C120.422 188.743 123.509 183.4 121.317 180.117C120.636 179.097 118.515 180.39 117.68 180.557C116.058 180.881 114.121 180.075 113.161 178.797C111.883 177.096 113.007 173.338 114.373 171.975C115.607 170.743 117.21 170.179 116.798 168.124C116.25 165.389 110.688 167.038 109.413 164.493C108.4 162.47 109.791 158.626 111.508 157.341C112.898 156.3 114.686 156.072 115.255 154.37C116.473 150.721 111.442 150.201 109.964 147.988C109.494 147.284 108.751 146.671 109.083 145.678C109.565 144.235 109.745 142.992 111.066 141.937C112.669 140.657 115.712 140.467 116.577 138.306C117.126 136.938 115.693 135.926 114.924 135.005C113.334 133.1 110.845 130.274 112.61 127.633C115.194 123.763 119.445 129.117 121.868 126.093C123.278 124.334 123.272 122.477 122.971 120.371C122.724 118.648 121.706 116.559 123.522 115.2C127.551 112.183 131.134 119.961 135.205 119.381C138.131 118.964 138.071 116.401 138.071 114.099C138.071 113.242 138.037 111.58 139.063 111.239C141.555 110.409 141.806 111.877 142.811 113.549C143.806 115.205 145.415 116.891 147.44 117.18C151.306 117.732 151.195 112.842 153.832 111.789C158.394 109.968 158.572 117.577 161.548 118.17C162.788 118.418 164.668 118.176 165.406 117.07C166 116.181 166.088 114.386 167.28 113.989C170.216 113.012 170.905 115.003 171.402 117.18L171.867 119.161C172.129 120.084 172.483 120.869 173.122 121.252C174.813 122.265 176.272 120.544 177.531 119.601C178.71 118.718 180.141 118.677 181.498 119.161C188.002 121.474 180.45 125.857 181.902 128.669C184.141 133.005 190.794 122.629 193.49 128.696C194.291 130.499 189.282 136.672 189.783 138.424C190.351 140.409 196.711 138.638 197.768 142.168C198.873 145.855 190.412 145.963 191.398 149.898C192.268 153.373 195.819 152.038 197.973 154.128C199.434 155.545 199.667 157.481 199.15 158.772C197.931 161.814 193.787 161.583 193.072 165.153C192.127 169.871 199.288 171.007 196.82 175.936C194.895 179.778 189.107 175.929 187.561 179.787C186.118 183.388 192.741 187.049 189.655 190.13C188.938 190.845 187.972 190.492 187.12 190.35C185.008 189.998 182.606 188.258 180.396 188.7C176.931 189.392 177.31 191.65 177.31 194.531C177.31 195.578 177.574 197.846 176.208 198.382C173.793 199.329 172.34 198.042 171.138 196.842C170.439 196.144 168.831 193.69 167.735 193.715Z" fill="#9AACE3"></path></svg>