<?xml version="1.0" encoding="UTF-8"?>
<svg id="Layer_1" data-name="Layer 1" xmlns="http://www.w3.org/2000/svg" viewBox="0 0 1401.19 435.65">
  <defs>
    <style>
      .cls-1 {
        fill: #63ab45;
      }

      .cls-1, .cls-2, .cls-3, .cls-4 {
        stroke-width: 0px;
      }

      .cls-2 {
        fill: #ffcc3a;
      }

      .cls-3 {
        fill: #fff;
      }

      .cls-4 {
        fill: #1789fc;
      }
    </style>
  </defs>
  <g>
    <path class="cls-1" d="M553.87,125.54c12.84,0,23.18,3.92,31.03,11.76,7.84,7.84,11.76,18.25,11.76,31.23s-4.02,22.95-12.07,31.13c-8.04,8.18-18.49,12.27-31.33,12.27h-31.03v59.82h-26.36V125.54h58ZM521.83,149.27l.41,39.34h30.22c11.49,0,17.24-6.32,17.24-18.96,0-6.52-1.56-11.55-4.66-15.08-3.11-3.53-7.44-5.3-12.98-5.3h-30.22Z"/>
    <path class="cls-1" d="M613.29,172.59c0-15.14,4.59-27.14,13.79-35.99,9.19-8.85,21.63-13.28,37.31-13.28s27.78,4.46,37.11,13.38c9.33,8.92,13.99,20.89,13.99,35.89v99.16h-26.36v-53.54h-49.48v53.54h-26.36v-99.16ZM639.65,196.52h49.48v-25.35c0-7.57-2.27-13.69-6.79-18.35-4.53-4.66-10.51-7-17.95-7s-13.76,2.3-18.15,6.89c-4.4,4.6-6.59,10.75-6.59,18.45v25.35Z"/>
    <path class="cls-1" d="M737.6,125.54h58.4c11.89,0,21.87,3.9,29.91,11.69,8.04,7.79,12.07,17.52,12.07,29.18,0,10.03-3.24,19.04-9.73,27.04l-3.04,3.66-4.87,4.07c2.97,1.21,5.07,2.26,6.29,3.13,1.22.88,3.45,3.27,6.69,7.18,1.49,1.75,2.64,4.11,3.45,7.08.81,2.97,1.22,6.54,1.22,10.72v42.46h-26.36v-39.41c0-5.66-1.76-10.54-5.27-14.65-3.52-4.11-7.64-6.17-12.37-6.17h-30.01v60.23h-26.36V125.54ZM763.56,148.26l.41,39.95h28.39c5.27,0,9.8-1.83,13.59-5.5,3.78-3.67,5.68-8.36,5.68-14.06s-1.83-10.36-5.48-14.37c-3.65-4.01-8.11-6.01-13.38-6.01h-29.2Z"/>
    <path class="cls-1" d="M860.29,172.59c0-15.14,4.59-27.14,13.79-35.99,9.19-8.85,21.63-13.28,37.31-13.28s27.78,4.46,37.11,13.38c9.33,8.92,13.99,20.89,13.99,35.89v99.16h-26.36v-53.54h-49.48v53.54h-26.36v-99.16ZM886.65,196.52h49.48v-25.35c0-7.57-2.27-13.69-6.79-18.35-4.53-4.66-10.51-7-17.95-7s-13.76,2.3-18.15,6.89c-4.39,4.6-6.59,10.75-6.59,18.45v25.35Z"/>
    <path class="cls-1" d="M984.6,128.59l15.61-4.06c4.33-.81,8.58-1.22,12.78-1.22,22.17,0,40.76,7.27,55.77,21.8,15.01,14.53,22.51,32.75,22.51,54.65s-7.23,39.51-21.7,53.64c-14.47,14.13-32.72,21.19-54.75,21.19-2.57,0-5-.07-7.3-.2-2.3-.14-4.6-.41-6.89-.81-2.3-.41-4.43-.88-6.39-1.42-1.96-.54-5.17-1.62-9.63-3.24v-140.33ZM1010.96,248.03l5.48.2c12.98,0,24.2-4.83,33.66-14.5,9.46-9.67,14.2-21.12,14.2-34.37s-4.8-25.04-14.4-34.98c-9.6-9.94-20.96-14.9-34.07-14.9h-4.87v98.55Z"/>
    <path class="cls-1" d="M1109.92,125.54h26.36v146.21h-26.36V125.54Z"/>
    <path class="cls-1" d="M1154.33,247.62l5.07,2.03h3.85c5.54,0,10.24-1.52,14.09-4.56,3.85-3.04,5.78-6.86,5.78-11.46,0-1.49-.34-3.41-1.01-5.78-.68-2.36-1.18-4.06-1.52-5.07-.34-1.01-.85-2.2-1.52-3.55l-18.05-36.5c-3.11-6.22-4.66-12.71-4.66-19.47,0-11.22,4.04-20.55,12.12-27.98,8.08-7.43,18.32-11.15,30.71-11.15l7.27.61,5.46,1.01v24.54l-7.3-1.01c-5.54,0-10.48,1.42-14.8,4.26-3.92,2.84-5.88,6.42-5.88,10.75,0,2.03.37,4.36,1.12,7,.74,2.64,1.79,5.24,3.14,7.81l17.44,35.89c4.19,8.65,6.29,16.36,6.29,23.12,0,10.14-4.09,18.69-12.27,25.65-8.18,6.96-18.62,10.44-31.33,10.44-3.79,0-8.45-.68-13.99-2.03v-24.54Z"/>
    <path class="cls-1" d="M1301.76,146.84l-8.52,1.42c-7.57,1.76-14.53,5.41-20.89,10.95l-4.87,5.27c-1.62,1.62-3.24,3.65-4.87,6.08l-3.45,6.49-3.04,9.73h45.63v23.32h-45.63l2.64,8.69c2.43,6.88,5.81,12.06,10.14,15.57l8.72,7.08,6.49,3.64c1.08.54,1.96.94,2.64,1.21.68.27,2.43.81,5.27,1.62l9.73,2.02v24.26h-7.71c-1.62,0-3.99-.41-7.1-1.22-10.14-1.49-19.94-5.88-29.4-13.2-9.46-7.31-16.97-16.48-22.51-27.52-5.54-11.03-8.31-22.17-8.31-33.4s2.74-23.04,8.21-33.81c5.47-10.76,11.79-18.92,18.96-24.47,7.16-5.55,13.28-9.51,18.35-11.88,5.07-2.37,9.77-4.09,14.09-5.18,2.16-.41,4.46-.74,6.89-1.02,2.43-.27,5.27-.41,8.52-.41v24.74Z"/>
  </g>
  <g>
    <path class="cls-3" d="M594.47,299.81h35.34v8.87h-12.52v48.25h-10.3v-48.25h-12.52v-8.87Z"/>
    <path class="cls-3" d="M660.71,316.93c5.6,0,10.35,1.96,14.26,5.86,3.91,3.91,5.86,8.71,5.86,14.42s-1.95,10.6-5.86,14.54c-3.91,3.94-8.72,5.9-14.42,5.9s-10.21-1.99-14.14-5.98c-3.94-3.99-5.9-8.81-5.9-14.46s1.95-10.51,5.86-14.42c3.91-3.91,8.69-5.86,14.34-5.86ZM649.93,337.45c0,3.01,1.07,5.65,3.21,7.92,2.14,2.27,4.66,3.41,7.57,3.41s5.28-1.13,7.45-3.41c2.17-2.27,3.25-4.96,3.25-8.08s-1.06-5.73-3.17-8c-2.11-2.27-4.62-3.41-7.53-3.41s-5.49,1.14-7.61,3.41c-2.11,2.27-3.17,4.99-3.17,8.16Z"/>
    <path class="cls-3" d="M733.44,340.06c0,5.18-1.72,9.4-5.15,12.68-3.43,3.28-7.84,4.91-13.23,4.91s-9.72-1.64-13.15-4.91c-3.43-3.27-5.15-7.5-5.15-12.68v-22.03h9.19v21.79c0,2.69.84,4.89,2.54,6.58,1.69,1.69,3.88,2.54,6.58,2.54s4.9-.83,6.62-2.5c1.72-1.66,2.57-3.87,2.57-6.62v-21.79h9.19v22.03Z"/>
    <path class="cls-3" d="M750.79,332.17c0-4.13,1.48-7.63,4.44-10.52,2.96-2.88,6.52-4.33,10.7-4.33h2.3v8.71h-1.11c-2.17,0-3.89.65-5.19,1.95-1.29,1.3-1.94,3.04-1.94,5.22v23.73h-9.19v-24.77Z"/>
    <path class="cls-3" d="M786.76,347.04c1.79,1.38,3.12,2.06,3.96,2.06.74,0,1.43-.32,2.06-.95.63-.63.95-1.37.95-2.22,0-.95-.47-1.98-1.43-3.09l-6.58-7.84c-1.96-2.27-2.93-4.7-2.93-7.29,0-3.01,1.16-5.52,3.49-7.53,2.32-2.01,5.25-3.01,8.79-3.01,2.06,0,3.78.25,5.15.75,1.37.5,2.93,1.49,4.68,2.97l-4.99,6.34c-1.53-1.11-2.85-1.66-3.96-1.66-.74,0-1.43.32-2.06.95-.42.53-.69,1.25-.79,2.14,0,.74.52,1.72,1.57,2.94l6.29,7.5c1.89,2.38,2.84,5,2.84,7.85s-1.12,5.4-3.37,7.49c-2.25,2.09-5.08,3.13-8.52,3.13-2.06,0-3.91-.26-5.55-.79s-3.36-1.45-5.15-2.77l5.55-6.97Z"/>
    <path class="cls-3" d="M862.9,320.16c0-3.43,1.16-6.38,3.49-8.86s5.12-3.72,8.4-3.72h1.11l1.27,9.03c-2.85.95-4.28,2.46-4.28,4.52,0,1.69.95,3.17,2.85,4.44l-3.41,7.84c-2.54.32-4.46,1.14-5.79,2.46s-1.98,3.12-1.98,5.39c0,2.06.74,3.83,2.22,5.31s3.22,2.22,5.23,2.22,3.8-.71,5.23-2.14,2.14-3.2,2.14-5.32c0-2.7-1.23-5-3.69-6.9l3.39-7.81c1.84,0,3.36-.87,4.57-2.62l6.65,5.38c-.47,1.21-.98,2.11-1.5,2.69l-1.27,1.11-1.82.79c1.06,1.05,1.77,2.09,2.14,3.12.37,1.03.55,2.28.55,3.75,0,4.85-1.56,8.91-4.68,12.17s-7.05,4.9-11.8,4.9-8.6-1.63-12-4.91c-3.41-3.27-5.11-7.17-5.11-11.71,0-2.48.51-4.78,1.54-6.92,1.03-2.14,2.26-3.76,3.68-4.87l2.85-2.06,1.98-.95-1.5-3.17c-.32-1.05-.48-2.11-.48-3.16Z"/>
    <path class="cls-3" d="M936.91,299.81h35.34v8.87h-12.52v48.25h-10.3v-48.25h-12.52v-8.87Z"/>
    <path class="cls-3" d="M984.37,332.17c0-4.13,1.48-7.63,4.44-10.52,2.96-2.88,6.52-4.33,10.7-4.33h2.3v8.71h-1.11c-2.17,0-3.89.65-5.19,1.95-1.29,1.3-1.94,3.04-1.94,5.22v23.73h-9.19v-24.77Z"/>
    <path class="cls-3" d="M1034.2,357.65c-5.65,0-10.43-1.91-14.34-5.74-3.91-3.83-5.86-8.6-5.86-14.3s2.01-10.72,6.02-14.74c4.01-4.01,8.93-6.02,14.74-6.02s10.59,2.01,14.34,6.02c3.75,4.01,5.63,9.24,5.63,15.69v18.38h-9.27v-18.06c0-3.91-1-7.04-3.01-9.39-2.01-2.35-4.68-3.53-8-3.53-3.01,0-5.6,1.11-7.77,3.32s-3.25,4.82-3.25,7.82c0,3.21,1.15,5.92,3.45,8.13,2.3,2.21,5.13,3.32,8.52,3.32,1.16,0,2.14-.09,2.93-.26.79-.18,1.96-.67,3.49-1.48v9.35c-1.79.63-3.22,1.03-4.28,1.19l-3.33.32Z"/>
    <path class="cls-3" d="M1078.1,318.04l4.78,26.46c.26,1.43.8,2.58,1.61,3.45s1.77,1.31,2.87,1.31c2.36,0,3.85-1.59,4.48-4.76l4.78-26.46h9.44s-5.39,28.37-5.39,28.37c-.58,3.28-2.13,5.97-4.63,8.08-2.51,2.11-5.43,3.17-8.76,3.17s-6.14-1.04-8.6-3.13c-2.46-2.09-4-4.79-4.63-8.12l-5.39-28.36h9.44Z"/>
    <path class="cls-3" d="M1136.33,345.45l-4.28-5.31,14.49-11.02c-2.01-2.32-4.44-3.48-7.29-3.48-3.17,0-5.97,1.21-8.4,3.64-2.43,2.43-3.64,5.2-3.64,8.32s1.13,5.65,3.4,7.92c2.27,2.27,4.91,3.41,7.92,3.41,3.96,0,7.37-1.93,10.22-5.78l7.45,4.28-2.54,3.72c-.42.58-1.86,1.8-4.32,3.64-2.46,1.85-6.04,2.77-10.74,2.77-5.76,0-10.54-1.89-14.34-5.67-3.8-3.78-5.71-8.54-5.71-14.3s1.91-10.67,5.74-14.58c3.83-3.91,8.68-5.86,14.54-5.86,4.12,0,7.43.86,9.94,2.58,2.51,1.72,4.22,3.14,5.15,4.28.92,1.14,1.99,3,3.21,5.59l-20.84,15.85Z"/>
    <path class="cls-3" d="M1172.78,299.81h9.19v57.13h-9.19v-57.13Z"/>
    <path class="cls-3" d="M1203.84,347.04c1.79,1.38,3.12,2.06,3.96,2.06.74,0,1.43-.32,2.06-.95.63-.63.95-1.37.95-2.22,0-.95-.47-1.98-1.43-3.09l-6.58-7.84c-1.96-2.27-2.93-4.7-2.93-7.29,0-3.01,1.16-5.52,3.49-7.53,2.32-2.01,5.26-3.01,8.79-3.01,2.06,0,3.78.25,5.15.75,1.37.5,2.93,1.49,4.67,2.97l-4.99,6.34c-1.53-1.11-2.85-1.66-3.96-1.66-.74,0-1.43.32-2.06.95-.42.53-.69,1.25-.79,2.14,0,.74.52,1.72,1.57,2.94l6.29,7.5c1.89,2.38,2.84,5,2.84,7.85s-1.12,5.4-3.37,7.49c-2.25,2.09-5.08,3.13-8.52,3.13-2.06,0-3.91-.26-5.54-.79-1.64-.53-3.36-1.45-5.15-2.77l5.55-6.97Z"/>
  </g>
  <g>
    <path class="cls-2" d="M335.12,109.41c1.33.88,2.7,1.69,3.97,2.64,19.78,14.71,36.52,32.12,48.24,54.05,13.06,24.41,19.24,50.41,18.62,78.09-.56,24.82-6.78,48.1-18.63,69.87-.9,1.65-2.83,3.33-4.61,3.83-21.29,6.01-42.99,7.95-64.9,4.79-18.15-2.62-34.63-9.69-49.5-20.53-14.03-10.22-29.23-18.23-46.06-22.72-18.89-5.04-37.97-6.58-57.51-3.63-18.95,2.86-37.04,8.16-54.41,16.12-.65.3-1.26.65-1.9.98-3.54,1.84-4.29,1.62-5.28-2.1-2.13-8.03-4.09-16.09-6.17-24.13-.5-1.94-.05-2.98,1.99-3.76,18.48-7.05,37.4-12.54,57.02-15.08,42.54-5.52,81.28,4.15,116.18,29.41,8.03,5.81,16.63,11.2,25.68,15.16,16.85,7.36,34.41,9.29,51.83,1.49,12.08-5.41,19.5-15.18,23.81-27.48,5.59-15.92,5.31-32.5,5.24-48.99-.09-23.99-5.26-46.87-16.12-68.37-6.59-13.04-15.04-24.72-24.97-35.39-1.08-1.16-2.1-2.37-3.14-3.55.21-.23.41-.46.62-.69Z"/>
    <path class="cls-4" d="M378.58,328.95c-28.02,37.86-64.3,60.66-110.6,65.74-49.78,5.46-92.46-10.42-129.32-45.8,4.43-3.06,7.9-5.91,11.76-8.06,13.1-7.28,27.38-11.28,41.96-14.3,27.37-5.69,55.03-7.76,82.89-5.5,6.16.5,12.3,2.56,18.2,4.62,20,6.98,40.46,9.08,61.42,6.45,7.06-.89,14.06-2.19,21.09-3.28.53-.08,1.1.05,2.61.14Z"/>
    <path class="cls-1" d="M254.87,117.14c-2.08,1.75-4.17,3.5-6.25,5.25,4.9-15.4,15.01-24.54,31.34-26.24,0-.3,0-.59,0-.89-2.62-.26-5.24-.51-8.73-.85,4.43-2.92,8.82-3.91,13.23-4.45,4.58-.56,9.27-1.08,13.83-.72,4.43.35,8.89,1.49,13.13,2.91,4.32,1.45,8.37,3.68,13.64,6.06-10.8-17.81-12.41-35.5-2.84-53.67.15,2.71.3,5.43.46,8.14,2.65-16.64,12.92-25.97,28.3-30.72-1.94,2.07-3.88,4.14-5.82,6.21l.51,1.08c9.22-7.45,19.45-6.95,29.86-4.87-22.25,7.84-35.71,24.14-43.74,45.29-3.47,9.14-5.28,18.89-1.96,28.86.59-10.32,1.93-20.43,6.93-29.62,5.03-9.24,12.04-16.55,21.76-21.25-1.6,2.6-3.2,5.2-4.8,7.8.22.25.43.51.65.76,11.41-13.69,25.62-17.45,42.38-12.13-2.71.77-5.42,1.55-8.42,2.4,5.96,1.38,11.59,2.09,16.74,4.05,5.15,1.95,9.32,5.78,12.93,10.31-17.3-4.84-33.69-2.1-49.5,5.03-15.9,7.17-28.67,17.73-35.76,34.02l.83.84c.85-.97,1.79-1.88,2.54-2.92,6.74-9.48,15.41-16.61,26.58-19.97,5.74-1.72,11.88-2.1,17.86-2.97.89-.13,1.86.36,3.42.7-3.29,1.55-5.86,2.76-8.42,3.97.05.29.11.58.16.87,16.21-4.92,28.72,1.1,39.19,13.19-2.83-1.02-5.65-2.03-8.48-3.05-.29.34-.58.68-.87,1.03,10.46,5.57,15.16,14.6,16.41,25.91-11.13-13.09-25.7-19.47-42.11-22.12-16.46-2.67-32.21-.95-46.57,8.86-1.6-2.54-2.92-2.85-4.63.1-.76,1.31-2.81,1.99-4.4,2.69-11.16,4.91-19.35,13.24-26.1,23.06-8.89,12.94-13.64,27.43-14.25,43.07-.19,4.88,1.26,9.83,2,14.74.13.89.46,1.75.34,2.84-4.92-3.46-8.68-8.02-10.45-13.59-1.71-5.37-2.19-11.12-3.38-17.68-1.1,3.4-2,6.17-2.88,8.88-2.91-3.61-3.25-14.02-.62-22.13,2.4-7.4,6.5-13.66,12.95-18.33-.18-.25-.36-.5-.54-.75-1.24.59-2.5,1.13-3.7,1.8-1.19.66-2.3,1.46-3.78,1.76,5.02-8.8,11.89-15.67,20.78-20.43,8.98-4.81,18.93-5.92,29.04-7.83-1.32-.34-2.62-.86-3.95-.98-11.35-1-22.03,1.76-32.03,6.74-13.75,6.84-25.44,16.22-32.85,30.06-1.64,3.06-2.75,6.41-4.48,9.55-2.19-10.65-2.2-20.91,5.65-29.91-.37-.25-.74-.49-1.11-.74Z"/>
    <path class="cls-4" d="M263.9,310.83c-6-.89-11.69-2-17.44-2.56-41.29-3.98-79.98,2.95-114.32,27.71-1.79,1.29-3.21,2.01-4.65-.33-5.9-9.59-11.81-19.17-17.75-28.73-1.73-2.79-.87-4.4,2.01-5.74,30.59-14.25,62.35-21.51,96.15-15.74,20.49,3.5,38.85,12.21,55.62,24.36.15.11.16.42.37,1.03Z"/>
    <path class="cls-4" d="M231.95,85.37c-52.78,19.16-86.41,55.87-102.39,109.34-.96-.49-1.75-.74-2.33-1.22-5.58-4.62-11.03-9.41-16.74-13.85-2.54-1.98-2.99-3.72-1.62-6.61,7.5-15.84,17.54-29.87,29.75-42.37,15.06-15.41,32.6-27.16,52.54-35.32,12.69-5.19,25.86-8.61,39.42-10.57.27-.04.59.25,1.37.61Z"/>
    <path class="cls-4" d="M231.44,183.16c6.24-.57,11.31,2.59,16.47,5.2,1.12.57,2.44,2.63,2.17,3.58-.35,1.24-2.07,2.63-3.42,2.94-7.64,1.73-15.32,3.32-23.03,4.65-26.67,4.59-53.33,9.2-80.05,13.51-14.75,2.38-29.59,4.26-44.42,6.14-1.33.17-2.88-1.3-4.32-2.01.93-1.29,1.61-3.3,2.84-3.73,4.13-1.44,8.46-2.29,12.7-3.41,10.2-2.69,20.34-5.6,30.6-8.07,23.17-5.57,46.36-11.09,69.62-16.26,6.8-1.51,13.89-1.74,20.84-2.55Z"/>
    <path class="cls-1" d="M328.98,107.85c-13.15,34.58-4.42,63.22,22.46,87.37-5.02.15-10.44-.83-15.06-3.51-4.59-2.66-8.46-6.55-13.27-10.4,1.18,2.95,2.17,5.46,3.13,7.86-4.06-1.04-10.69-8.37-13.96-15.74-3.06-6.91-4.1-14.06-1.62-21.54-.37-.07-.74-.14-1.12-.21-1.04,2.58-2.07,5.15-3.09,7.68-7.52-11.22,8.1-46.68,22.51-51.51Z"/>
    <path class="cls-4" d="M94.02,248.7c0-4.28,0-8.37,0-12.45,0-8.65,0-8.58,8.4-9.64,6.7-.85,13.39-1.81,20.06-2.92,2.24-.37,2.75.4,2.69,2.38-.1,3.32.12,6.67-.22,9.96-.13,1.24-1.2,3.07-2.25,3.42-9.27,3.16-18.63,6.05-28.67,9.24Z"/>
    <path class="cls-1" d="M317.91,90.74c-18.99-12.68-37.8-12.57-56.47.11-.42-3.7,2.57-7.97,9.77-13.48-.61-.51-1.18-.99-2.08-1.75,7.02-5.27,14.46-7.27,23.56-4.09-.68-.88-.89-1.2-1.15-1.48-.29-.31-.64-.56-1.41-1.24,1.06-.13,1.6-.32,2.08-.24,12.69,2.3,25.66,13.31,25.72,22.16Z"/>
    <path class="cls-4" d="M125.72,202.06c-3.06.8-5.4,1.4-7.74,2.01-4.59,1.2-9.14,2.55-13.78,3.5-1.06.22-3.12-.65-3.52-1.55-2.96-6.72-5.63-13.57-8.37-20.39-.2-.51-.19-1.11-.3-1.83,5.38-1.39,10.14-2.57,14.81,2.2,4.87,4.97,10.66,9.05,16.04,13.53.77.64,1.51,1.33,2.86,2.54Z"/>
    <path class="cls-4" d="M137.13,237.95c1.71-1.52,3.05-2.75,4.43-3.93,6.41-5.45,12.99-10.71,19.18-16.39,3.43-3.15,7.31-4.63,11.72-5.32,6.43-1.01,12.85-2.06,19.28-3.08.55-.09,1.13-.01,2.65-.01-1.76,1.29-2.78,2.2-3.93,2.88-11.96,7-24.09,13.73-35.87,21.03-4.94,3.06-10.42,3.65-15.68,5.29-.34.11-.82-.2-1.79-.46Z"/>
    <path class="cls-4" d="M192.79,185.16c-6.51,1.51-13.11,2.73-19.5,4.64-4.58,1.37-7.56.11-10.48-3.37-2.88-3.44-6.29-6.44-9.44-9.66-.63-.64-1.15-1.39-1.88-2.29,3.57-2.25,6.76-.61,9.75.24,8.54,2.44,16.97,5.25,25.46,7.84,1.98.6,4.05.91,6.08,1.35,0,.41,0,.82,0,1.23Z"/>
  </g>
</svg>